<?xml version="1.0" standalone="no"?>
<!DOCTYPE svg PUBLIC "-//W3C//DTD SVG 20010904//EN"
 "http://www.w3.org/TR/2001/REC-SVG-20010904/DTD/svg10.dtd">
<svg version="1.0" xmlns="http://www.w3.org/2000/svg"
 width="512.000000pt" height="512.000000pt" viewBox="0 0 512.000000 512.000000"
 preserveAspectRatio="xMidYMid meet">
<metadata>
Created by potrace 1.16, written by Peter Selinger 2001-2019
</metadata>
<g transform="translate(0.000000,512.000000) scale(0.100000,-0.100000)"
fill="#000000" stroke="none">
<path d="M2315 5010 c-462 -52 -873 -212 -1230 -480 -525 -394 -860 -957 -962
-1620 -25 -161 -25 -539 0 -700 87 -560 339 -1053 732 -1429 393 -375 856
-597 1405 -672 123 -17 477 -17 600 0 467 64 875 236 1235 521 106 83 314 294
396 400 274 353 437 734 506 1180 25 161 25 539 0 700 -84 544 -319 1012 -698
1391 -373 373 -850 613 -1379 694 -123 19 -487 28 -605 15z m456 -290 c814
-81 1513 -614 1814 -1384 51 -130 95 -295 122 -454 27 -165 25 -505 -6 -675
-55 -312 -164 -589 -332 -842 -91 -137 -152 -212 -277 -338 -182 -184 -348
-304 -583 -421 -354 -177 -760 -253 -1140 -216 -823 81 -1522 608 -1828 1378
-54 135 -94 279 -122 439 -34 186 -33 521 0 708 97 550 385 1027 819 1363 326
251 732 410 1137 445 91 8 300 6 396 -3z"/>
<path d="M2492 3950 c-18 -11 -41 -34 -52 -52 -20 -32 -20 -53 -20 -1228 l0
-1195 -172 171 c-248 245 -247 244 -311 244 -95 0 -147 -53 -147 -152 l0 -53
262 -260 c284 -282 315 -304 440 -328 78 -14 178 2 266 44 51 25 102 66 246
204 276 263 333 325 341 368 19 100 -41 177 -138 177 -27 0 -58 -5 -70 -11
-12 -7 -110 -98 -217 -203 l-195 -191 -5 1195 -5 1195 -23 33 c-13 18 -36 39
-52 47 -41 21 -109 19 -148 -5z"/>
</g>
</svg>
