<?xml version="1.0" standalone="no"?>
<!DOCTYPE svg PUBLIC "-//W3C//DTD SVG 20010904//EN"
 "http://www.w3.org/TR/2001/REC-SVG-20010904/DTD/svg10.dtd">
<svg version="1.0" xmlns="http://www.w3.org/2000/svg"
 width="512.000000pt" height="512.000000pt" viewBox="0 0 512.000000 512.000000"
 preserveAspectRatio="xMidYMid meet">
<metadata>
Created by potrace 1.16, written by Peter Selinger 2001-2019
</metadata>
<g transform="translate(0.000000,512.000000) scale(0.100000,-0.100000)"
fill="#000000" stroke="none">
<path d="M2240 5105 c-462 -60 -856 -222 -1240 -509 -122 -91 -385 -354 -476
-476 -268 -358 -434 -747 -501 -1170 -26 -164 -26 -616 0 -780 82 -519 319
-998 680 -1376 394 -412 874 -667 1441 -766 174 -30 543 -37 727 -13 1188 149
2110 1084 2239 2272 16 145 8 533 -14 667 -184 1134 -1088 2011 -2216 2151
-150 18 -501 18 -640 0z m610 -331 c805 -101 1517 -667 1803 -1434 155 -415
181 -898 72 -1326 -200 -782 -804 -1396 -1583 -1610 -443 -121 -947 -96 -1378
69 -665 255 -1179 827 -1364 1519 -95 357 -95 779 0 1136 105 392 316 752 606
1032 497 481 1157 700 1844 614z"/>
<path d="M2500 4049 c-14 -5 -36 -20 -48 -32 -55 -51 -52 15 -52 -1234 l0
-1157 -302 301 c-200 199 -313 304 -331 308 -15 4 -53 5 -84 3 -50 -4 -60 -9
-94 -45 -41 -45 -55 -91 -44 -150 5 -33 63 -94 473 -505 506 -506 487 -490
579 -473 33 5 94 63 505 473 410 411 468 472 473 505 11 59 -3 105 -44 150
-34 36 -44 41 -94 45 -31 2 -69 1 -84 -3 -18 -4 -131 -109 -330 -308 l-303
-301 0 1160 0 1161 -22 33 c-13 18 -35 42 -50 53 -31 23 -111 32 -148 16z"/>
</g>
</svg>
