<?xml version="1.0" standalone="no"?>
<!DOCTYPE svg PUBLIC "-//W3C//DTD SVG 20010904//EN"
 "http://www.w3.org/TR/2001/REC-SVG-20010904/DTD/svg10.dtd">
<svg version="1.0" xmlns="http://www.w3.org/2000/svg"
 width="512.000000pt" height="512.000000pt" viewBox="0 0 512.000000 512.000000"
 preserveAspectRatio="xMidYMid meet">
<metadata>
Created by potrace 1.16, written by Peter Selinger 2001-2019
</metadata>
<g transform="translate(0.000000,512.000000) scale(0.100000,-0.100000)"
fill="#000000" stroke="none">
<path d="M2260 4785 c-390 -56 -744 -202 -1059 -438 -123 -92 -336 -305 -428
-428 -224 -300 -359 -613 -430 -999 -14 -73 -18 -150 -18 -330 0 -255 10 -345
65 -575 209 -877 872 -1497 1770 -1655 159 -28 478 -38 642 -21 808 86 1458
543 1783 1251 97 212 177 512 204 762 29 264 3 573 -70 823 -110 377 -296 693
-574 970 -338 339 -731 542 -1220 631 -123 23 -533 28 -665 9z m550 -175 c813
-101 1450 -609 1699 -1356 135 -407 157 -808 65 -1184 -145 -590 -547 -1092
-1089 -1363 -299 -149 -590 -218 -925 -218 -561 0 -1078 217 -1472 617 -166
168 -280 327 -381 529 -219 439 -271 885 -161 1385 87 398 274 743 548 1015
311 309 718 506 1176 570 117 16 426 19 540 5z"/>
<path d="M2506 3949 l-26 -20 -2 -1292 -3 -1292 -280 264 c-154 146 -310 293
-347 328 -58 55 -71 63 -105 63 -52 0 -83 -32 -83 -84 0 -42 -38 -4 530 -540
179 -169 335 -309 347 -312 13 -4 33 -4 45 0 19 5 357 317 776 717 95 91 102
101 102 137 0 51 -32 82 -84 82 -33 0 -47 -8 -104 -63 -516 -488 -621 -587
-626 -587 -3 0 -6 580 -6 1289 l0 1290 -26 20 c-34 27 -74 27 -108 0z"/>
</g>
</svg>
