<?xml version="1.0" standalone="no"?>
<!DOCTYPE svg PUBLIC "-//W3C//DTD SVG 20010904//EN"
 "http://www.w3.org/TR/2001/REC-SVG-20010904/DTD/svg10.dtd">
<svg version="1.0" xmlns="http://www.w3.org/2000/svg"
 width="850.000000pt" height="419.000000pt" viewBox="0 0 850.000000 419.000000"
 preserveAspectRatio="xMidYMid meet">

<g transform="translate(0.000000,419.000000) scale(0.100000,-0.100000)"
fill="#000000" stroke="none">
<path d="M5640 4174 c-52 -7 -164 -16 -248 -20 -95 -4 -159 -12 -169 -19 -20
-15 -20 14 2 -460 33 -715 38 -926 37 -1500 -1 -568 -12 -1006 -32 -1195 -5
-56 -5 -89 2 -98 16 -19 501 -17 517 2 7 8 17 59 23 113 11 101 21 143 36 143
5 0 51 -36 103 -80 109 -93 209 -148 334 -186 121 -36 335 -45 470 -19 337 63
631 331 771 702 43 113 64 229 71 378 17 393 -100 719 -347 966 -197 197 -447
290 -744 276 -245 -11 -447 -105 -597 -277 -96 -111 -104 -90 -95 235 9 327
24 738 32 897 9 174 16 168 -166 142z m954 -1473 c85 -30 142 -66 215 -135
159 -153 231 -324 231 -553 0 -197 -53 -348 -174 -495 -220 -266 -603 -292
-859 -58 -166 152 -245 354 -234 594 6 128 23 200 72 298 90 178 248 318 405
356 25 6 54 14 65 16 48 12 221 -3 279 -23z"/>
<path d="M880 4133 c-571 -14 -700 -19 -710 -29 -9 -9 -8 -80 4 -285 42 -731
50 -1445 22 -2034 -26 -551 -32 -871 -16 -890 12 -14 33 -16 169 -9 103 4 200
2 284 -6 115 -12 130 -11 144 3 15 15 15 57 -2 509 -10 272 -15 514 -11 540
12 83 7 81 335 86 250 4 295 2 346 -13 95 -27 104 -41 265 -415 210 -491 287
-661 310 -685 19 -20 26 -21 332 -20 l313 1 -2 22 c-3 29 -86 213 -278 622
-198 421 -265 574 -265 605 0 18 22 41 93 98 257 205 352 373 388 687 17 148
7 381 -21 490 -104 404 -438 665 -925 720 -82 9 -437 10 -775 3z m589 -484
c272 -30 416 -111 496 -281 90 -189 97 -479 16 -643 -60 -122 -194 -214 -366
-251 -66 -14 -127 -17 -345 -16 -282 2 -497 15 -513 31 -12 12 -2 1049 10
1101 7 29 16 37 48 48 86 30 432 35 654 11z"/>
<path d="M8117 3930 c-159 -27 -270 -167 -253 -319 19 -164 120 -241 316 -241
212 0 313 87 314 270 1 91 -23 149 -84 209 -67 65 -187 98 -293 81z"/>
<path d="M3520 3166 c-263 -61 -496 -222 -641 -443 -190 -291 -220 -714 -76
-1066 120 -295 382 -580 640 -697 165 -75 368 -109 534 -91 381 41 781 300
972 629 80 138 147 354 139 448 l-3 38 -150 78 c-82 43 -158 77 -169 76 -14
-2 -26 -27 -51 -104 -94 -289 -283 -522 -510 -630 -172 -82 -401 -85 -560 -8
-56 28 -125 79 -125 94 0 5 109 101 243 213 624 524 825 706 857 773 32 66 25
143 -21 220 -43 74 -214 248 -298 304 -89 59 -211 115 -322 146 -79 22 -119
27 -249 30 -102 2 -174 -1 -210 -10z m306 -487 c76 -23 172 -86 215 -140 30
-39 31 -40 14 -66 -69 -105 -674 -620 -751 -639 -44 -11 -92 56 -128 175 -21
70 -21 227 -1 306 51 199 206 354 385 384 72 13 190 4 266 -20z"/>
<path d="M7884 3045 c-10 -25 3 -354 23 -605 14 -178 17 -301 13 -715 -7 -851
-8 -815 14 -831 16 -11 67 -14 249 -14 138 0 236 4 248 10 19 10 19 25 13 638
-5 506 -3 681 9 907 25 443 30 571 23 601 l-7 27 -97 -9 c-125 -11 -251 -11
-379 0 -93 8 -103 7 -109 -9z"/>
<path d="M178 516 c-98 -26 -162 -110 -175 -225 -11 -109 36 -206 125 -258 40
-24 58 -28 122 -27 82 0 117 13 162 61 25 26 58 90 58 113 0 6 -25 10 -60 10
-52 0 -60 -3 -60 -19 0 -10 -12 -30 -26 -45 -21 -21 -36 -26 -74 -26 -84 0
-130 58 -130 165 0 104 46 165 125 165 46 0 89 -26 100 -60 5 -17 15 -20 61
-20 60 0 64 6 40 63 -20 49 -77 93 -136 106 -62 13 -72 13 -132 -3z"/>
<path d="M848 521 c-21 -4 -59 -21 -85 -37 -144 -89 -144 -345 0 -441 122 -81
291 -39 360 91 31 59 32 203 0 261 -52 98 -163 149 -275 126z m126 -112 c40
-32 58 -76 59 -143 1 -108 -46 -169 -129 -169 -55 0 -91 24 -115 76 -34 76
-19 180 33 229 39 36 111 39 152 7z"/>
<path d="M2126 516 c-92 -26 -140 -114 -106 -196 18 -44 56 -67 160 -94 106
-29 120 -38 120 -77 0 -73 -167 -77 -186 -5 -6 24 -10 26 -66 26 l-60 0 7 -28
c19 -78 86 -128 187 -139 163 -17 280 101 222 223 -21 45 -62 68 -164 94 -47
12 -93 29 -102 37 -41 37 -4 83 65 83 30 0 45 -7 67 -30 24 -26 35 -30 80 -30
51 0 52 0 46 26 -11 42 -36 74 -75 94 -50 25 -136 32 -195 16z"/>
<path d="M4650 521 c-115 -24 -189 -122 -190 -252 0 -114 38 -188 120 -233
121 -66 266 -32 320 74 11 22 20 48 20 60 0 18 -6 20 -55 20 -50 0 -55 -2 -61
-25 -9 -37 -50 -65 -95 -65 -90 0 -134 55 -134 165 0 106 45 165 125 165 43 0
78 -19 92 -52 12 -26 17 -28 71 -28 56 0 58 1 52 23 -26 84 -72 127 -155 146
-50 12 -60 12 -110 2z"/>
<path d="M5288 516 c-60 -16 -92 -38 -127 -86 -39 -53 -55 -117 -49 -193 14
-170 158 -270 321 -223 65 19 119 73 135 137 l10 39 -59 0 c-47 0 -59 -3 -59
-16 0 -8 -13 -29 -29 -45 -24 -23 -38 -29 -74 -29 -81 0 -129 61 -129 165 0
101 48 165 124 165 50 0 74 -13 93 -50 14 -28 20 -30 70 -30 31 0 55 4 55 10
0 19 -30 84 -48 103 -46 51 -153 76 -234 53z"/>
<path d="M6315 523 c-132 -31 -194 -105 -203 -239 -5 -78 7 -128 44 -184 51
-77 156 -114 257 -91 122 27 188 117 188 255 0 115 -42 191 -131 236 -37 19
-121 32 -155 23z m125 -121 c51 -51 65 -154 31 -229 -24 -52 -60 -76 -115 -76
-82 0 -130 61 -130 168 1 105 50 165 136 165 41 0 54 -5 78 -28z"/>
<path d="M8192 520 c-105 -22 -157 -111 -118 -205 18 -42 68 -69 168 -92 67
-15 118 -46 118 -71 0 -24 -38 -54 -75 -58 -53 -7 -92 9 -113 46 -16 27 -21
30 -71 30 l-54 0 6 -37 c19 -115 216 -173 341 -99 105 61 101 208 -7 256 -23
10 -74 26 -113 35 -79 18 -110 41 -99 75 15 48 103 54 147 10 25 -25 37 -30
79 -30 58 0 64 16 27 70 -42 61 -140 90 -236 70z"/>
<path d="M1360 265 l0 -255 55 0 55 0 0 173 1 172 37 -70 c21 -38 66 -116 101
-172 l62 -103 60 0 59 0 0 255 0 255 -55 0 -55 0 0 -172 0 -172 -63 110 c-35
60 -80 137 -101 172 l-38 62 -59 0 -59 0 0 -255z"/>
<path d="M2590 470 l0 -50 75 0 75 0 0 -205 0 -205 55 0 55 0 0 205 0 205 75
0 75 0 0 50 0 50 -205 0 -205 0 0 -50z"/>
<path d="M3210 266 l0 -256 55 0 54 0 3 98 3 97 40 3 c22 2 56 -1 76 -7 42
-13 54 -37 63 -119 3 -29 8 -57 11 -62 10 -15 115 -13 110 3 -2 6 -9 48 -14
92 -9 72 -13 83 -42 109 -25 22 -29 30 -18 37 8 5 17 9 22 9 4 0 16 15 27 33
40 66 16 157 -52 194 -27 14 -63 18 -185 21 l-153 4 0 -256z m275 139 c33 -32
32 -68 -2 -95 -22 -17 -38 -20 -92 -18 l-66 3 -3 54 c-5 79 -2 81 73 81 57 0
69 -3 90 -25z"/>
<path d="M3840 324 c0 -183 1 -199 22 -235 30 -54 90 -82 177 -82 80 -1 129
14 164 51 42 44 47 72 47 273 l0 189 -55 0 -55 0 0 -175 c0 -227 -8 -245 -105
-245 -35 0 -48 5 -64 26 -20 25 -21 40 -21 210 l0 184 -55 0 -55 0 0 -196z"/>
<path d="M5780 265 l0 -256 58 3 57 3 3 253 2 252 -60 0 -60 0 0 -255z"/>
<path d="M6820 265 l0 -255 50 0 50 0 0 178 1 177 25 -50 c14 -27 60 -107 102
-177 l77 -128 58 0 57 0 0 255 0 255 -56 0 -56 0 4 -175 c1 -96 2 -175 1 -175
-2 0 -21 35 -43 78 -22 42 -66 120 -98 172 l-58 95 -57 3 -57 3 0 -256z"/>
<path d="M7470 265 l0 -255 190 0 190 0 0 50 0 49 -132 3 -133 3 -3 58 -3 57
116 0 115 0 0 45 0 44 -112 3 -113 3 -3 48 -3 47 135 0 136 0 0 50 0 50 -190
0 -190 0 0 -255z"/>
</g>
</svg>
